# xmcd
#
# Track frame offsets:
#	150
#	12753
#	24425
#	35918
#	48670
#	58470
#	70895
#	86695
#	107053
#	122158
#	139320
#
# Disc length: 2083 seconds
#
# Revision: 0
# Processed by: cddbd v1.5.1PL2 Copyright (c) Steve Scherf et al.
# Submitted via: audiograbber 1.83.01
#
DISCID=a208210b
DTITLE=Albert King - Born under a bad sign
DYEAR=1967
DGENRE=Blues
TTITLE0=Born Under a Bad Sign
TTITLE1=Crosscut Saw
TTITLE2=Kansas City
TTITLE3=Oh, Pretty Woman
TTITLE4=Down Don't Bother Me
TTITLE5=The Hunter
TTITLE6=I Almost Lost My Mind
TTITLE7=Personal Manager
TTITLE8=Laundromat Blues
TTITLE9=As the Years Go Passing By
TTITLE10=The Very Thought of You
EXTD=
EXTT0=
EXTT1=
EXTT2=
EXTT3=
EXTT4=
EXTT5=
EXTT6=
EXTT7=
EXTT8=
EXTT9=
EXTT10=
PLAYORDER=
